# AST/ASF file generated using VICON BodyLanguage
# -----------------------------------------------
:version 1.10
:name VICON
:units
  mass 1.0
  length 0.45
  angle deg
:documentation
   .ast/.asf automatically generated from VICON data using
   VICON BodyBuilder and BodyLanguage model FoxedUp or BRILLIANT.MOD
:root
   order TX TY TZ RX RY RZ
   axis XYZ
   position 0 0 0  
   orientation 0 0 0 
:bonedata
  begin
     id 1 
     name lhipjoint
     direction 0.541323 -0.757556 0.364798 
     length 2.47576 
     axis 0 0 0  XYZ
  end
  begin
     id 2 
     name lfemur
     direction 0.34202 -0.939693 0  
     length 7.46493  
     axis 0 0 20  XYZ
    dof rx ry rz
    limits (-160.0 20.0)
           (-70.0 70.0)
           (-60.0 70.0)
  end
  begin
     id 3 
     name ltibia
     direction 0.34202 -0.939693 0   
     length 7.73805   
     axis 0 0 20   XYZ
    dof rx
    limits (-10.0 170.0)
  end
  begin
     id 4 
     name lfoot
     direction 0.107174 -0.294458 0.949636   
     length 2.25864   
     axis -90 7.62852e-016 20   XYZ
    dof rx rz
    limits (-45.0 90.0)
           (-70.0 20.0)
  end
  begin
     id 5 
     name ltoes
     direction 1.53606e-011 -4.21934e-011 1   
     length 1.12451   
     axis -90 7.62852e-016 20   XYZ
    dof rx
    limits (-90.0 20.0)
  end
  begin
     id 6 
     name rhipjoint
     direction -0.524745 -0.766967 0.36933   
     length 2.44538  
     axis 0 0 0  XYZ 
  end
  begin
     id 7 
     name rfemur
     direction -0.34202 -0.939693 0   
     length 7.61604   
     axis 0 0 -20   XYZ
    dof rx ry rz
    limits (-160.0 20.0)
           (-70.0 70.0)
           (-70.0 60.0)
  end
  begin
     id 8 
     name rtibia
     direction -0.34202 -0.939693 0   
     length 7.61056   
     axis 0 0 -20   XYZ
    dof rx
    limits (-10.0 170.0)
 end
 begin
     id 9 
     name rfoot
     direction -0.12616 -0.346623 0.929482   
     length 2.46372  
     axis -90 -7.62852e-016 -20   XYZ
    dof rx rz
    limits (-45.0 90.0)
           (-20.0 70.0)
  end
  begin
     id 10 
     name rtoes
     direction -1.53531e-011 -4.22004e-011 1   
     length 1.21611   
     axis -90 -7.62852e-016 -20   XYZ
    dof rx
    limits (-90.0 20.0)
  end
  begin
     id 11 
     name lowerback
     direction -0.000778023 0.997293 -0.0735223   
     length 2.06139   
     axis 0 0 0   XYZ
    dof rx ry rz
    limits (-20.0 45.0)
           (-30.0 30.0)
           (-30.0 30.0)
  end
  begin
     id 12 
     name upperback
     direction 0.0222598 0.999722 -0.0078355   
     length 2.06383   
     axis 0 0 0   XYZ
    dof rx ry rz
    limits (-20.0 45.0)
           (-30.0 30.0)
           (-30.0 30.0)
  end
  begin
     id 13 
     name thorax
     direction 0.0219654 0.999405 0.0265994   
     length 2.07163   
     axis 0 0 0   XYZ
    dof rx ry rz
    limits (-20.0 45.0)
           (-30.0 30.0)
           (-30.0 30.0)
  end
  begin
     id 14 
     name lowerneck
     direction 0.0213282 0.988147 0.15202   
     length 1.75969   
     axis 0 0 0   XYZ
    dof rx ry rz
    limits (-20.0 45.0)
           (-30.0 30.0)
           (-30.0 30.0)
  end
  begin
     id 15 
     name upperneck
     direction -0.0546456 0.982624 -0.177379   
     length 1.79244   
     axis 0 0 0   XYZ
    dof rx ry rz
    limits (-20.0 45.0)
           (-30.0 30.0)
           (-30.0 30.0)
  end
  begin
     id 16
     name head
     direction -0.0199987 0.996855 -0.076686  
     length 1.80555  
     axis 0 0 0   XYZ
    dof rx ry rz
    limits (-20.0 45.0)
           (-30.0 30.0)
           (-30.0 30.0)
  end
  begin
     id 17 
     name lclavicle
     direction 0.929565 0.363219 -0.063096  
     length 3.55722  
     axis 0 0 0   XYZ
    dof ry rz
    limits (-20.0 10.0)
           (0.0 20.0)
  end
  begin
     id 18 
     name lhumerus
     direction 1 -4.48993e-011 -2.36203e-027   
     length 4.92785   
     axis 180 -30 -90   XYZ
    dof rx ry rz
    limits (-60.0 90.0)
           (-90.0 90.0)
           (-90.0 90.0)
  end
  begin
     id 19
     name lradius
     direction 1 -4.48947e-011 2.02997e-027   
     length 3.44052   
     axis 180 -30 -90   XYZ
    dof rx
    limits (-10.0 170.0)
  end
  begin
     id 20
     name lwrist
     direction 1 -4.48962e-011 1.45991e-027   
     length 1.72026   
     axis 1.49639e-024 90 90   XYZ
    dof ry
    limits (-180.0 0.0)
 end
  begin
     id 21 
     name lhand
     direction 1 -4.48984e-011 2.91906e-027   
     length 0.654326   
     axis -1.863e-015 90 90   XYZ
    dof rx rz
    limits (-90.0 90.0)
           (-45.0 45.0)
  end
  begin
     id 22 
     name lfingers
     direction 1 -4.48961e-011 5.83968e-027   
     length 0.527534   
     axis -3.72598e-015 90 90   XYZ
    dof rx
    limits (0.0 90.0)
  end
  begin
     id 23
     name lthumb
     direction 0.707107 -6.34963e-011 0.707107   
     length 0.757437   
     axis -90 45 -6.68868e-015   XYZ
    dof rx rz
    limits (-45.0 45.0)
           (-45.0 45.0)
  end
  begin
     id 24 
     name rclavicle
     direction -0.902944 0.422599 -0.0781198   
     length 3.54432  
     axis 0 0 0   XYZ 
    dof ry rz
    limits (-10.0 20.0)
           (-20.0 0.0)
  end
  begin
     id 25 
     name rhumerus
     direction -1 -4.48953e-011 -4.75835e-028  
     length 5.09181   
     axis 180 30 90   XYZ
    dof rx ry rz
    limits (-90.0 60.0)
           (-90.0 90.0)
           (-90.0 90.0)
  end
  begin
     id 26 
     name rradius
     direction -1 -4.48986e-011 -3.25889e-027   
     length 3.49865   
     axis 180 30 90   XYZ
    dof rx
    limits (-10.0 170.0)
  end
  begin
     id 27 
     name rwrist
     direction -1 -4.48963e-011 1.45989e-027   
     length 1.74933   
     axis 1.49639e-024 -90 -90   XYZ
    dof ry
    limits (-180.0 0.0)
  end
  begin
     id 28
     name rhand
     direction -1 -4.49003e-011 2.91844e-027   
     length 0.66641   
     axis -1.863e-015 -90 -90   XYZ
    dof rx rz
    limits (-90.0 90.0)
           (-45.0 45.0)
  end
  begin
     id 29
     name rfingers
     direction -1 -4.48973e-011 5.83886e-027   
     length 0.537277   
     axis -3.72598e-015 -90 -90   XYZ
    dof rx
    limits (0.0 90.0)
  end
  begin
     id 30
     name rthumb
     direction -0.707107 -6.34976e-011 0.707107   
     length 0.771425   
     axis -90 -45 6.68868e-015   XYZ
    dof rx rz
    limits (-45.0 45.0)
           (-45.0 45.0)
  end
:hierarchy
  begin
    root lhipjoint rhipjoint lowerback
    lhipjoint lfemur
    lfemur ltibia
    ltibia lfoot
    lfoot ltoes
    rhipjoint rfemur
    rfemur rtibia
    rtibia rfoot
    rfoot rtoes
    lowerback upperback
    upperback thorax
    thorax lowerneck lclavicle rclavicle
    lowerneck upperneck
    upperneck head
    lclavicle lhumerus
    lhumerus lradius
    lradius lwrist
    lwrist lhand lthumb
    lhand lfingers
    rclavicle rhumerus
    rhumerus rradius
    rradius rwrist
    rwrist rhand rthumb
    rhand rfingers
  end

#!OML:ASF H:\LiuWeirdWalks\Patient Classification 1\Patient 1\Session 1\male.ASF
:FULLY-SPECIFIED
:DEGREES
265
root 0.332315 17.9816 -22.8747 0.833964 2.38217 -0.157594
lowerback 2.26529 0.160184 -2.38766
upperback -0.60999 0.17957 2.01083
thorax -1.9112 0.129698 3.40249
lowerneck -14.5942 2.15353 6.71573
upperneck 29.957 3.21894 -6.24757
head 12.5587 1.40154 -3.07466
rclavicle -1.11257e-014 -3.97569e-016
rhumerus -26.9058 -24.9224 -15.28
rradius 26.4706
rwrist 2.32289
rhand -23.5901 -4.01476
rfingers 7.12502
rthumb 2.87318 -33.9751
lclavicle -1.11257e-014 -3.97569e-016
lhumerus -17.9089 22.2744 25.6872
lradius 27.9396
lwrist -7.94063
lhand -15.63 4.43381
lfingers 7.12502
lthumb 10.5571 34.1487
rfemur -4.01006 3.49649 15.6414
rtibia 26.6551
rfoot -13.7547 -20.4558
rtoes -6.36525
lfemur -3.04936 -0.245427 -17.9327
ltibia 23.1183
lfoot -11.2976 19.3102
ltoes -10.2845
266
root 0.326052 17.9807 -22.8763 0.811123 2.38117 -0.148039
lowerback 2.27732 0.178231 -2.34023
upperback -0.586328 0.204414 1.99032
thorax -1.89521 0.140857 3.35344
lowerneck -14.6622 2.32775 7.21972
upperneck 30.1726 3.41153 -6.48795
head 12.6935 1.51486 -3.23386
rclavicle -1.67725e-016 5.96354e-015
rhumerus -26.6448 -24.8467 -15.1875
rradius 26.6205
rwrist 2.19669
rhand -23.6822 -4.00315
rfingers 7.12502
rthumb 2.78423 -33.9647
lclavicle -1.67725e-016 5.96354e-015
lhumerus -17.7267 22.5252 25.3765
lradius 27.8972
lwrist -8.12345
lhand -15.6708 4.50816
lfingers 7.12502
lthumb 10.5177 34.225
rfemur -4.00139 3.48373 15.6493
rtibia 26.6872
rfoot -13.7982 -20.4309
rtoes -6.34007
lfemur -3.03748 -0.247046 -17.9228
ltibia 23.1326
lfoot -11.291 19.3199
ltoes -10.2925
267
root 0.319711 17.9798 -22.8785 0.790242 2.38824 -0.135445
lowerback 2.30914 0.19535 -2.3048
upperback -0.576638 0.227515 1.97526
thorax -1.90462 0.151925 3.31692
lowerneck -14.689 2.50057 7.73614
upperneck 30.3654 3.60482 -6.74182
head 12.8135 1.6292 -3.40051
rclavicle 1.36664e-015 -3.18055e-015
rhumerus -26.4 -24.7703 -15.0808
rradius 26.768
rwrist 2.10188
rhand -23.7479 -3.98111
rfingers 7.12502
rthumb 2.72082 -33.9435
lclavicle 1.36664e-015 -3.18055e-015
lhumerus -17.5684 22.7232 25.0946
lradius 27.8637
lwrist -8.28406
lhand -15.6968 4.55298
lfingers 7.12502
lthumb 10.4926 34.2711
rfemur -3.99502 3.46059 15.6531
rtibia 26.7199
rfoot -13.8438 -20.4011
rtoes -6.30353
lfemur -3.03075 -0.252113 -17.9155
ltibia 23.1457
lfoot -11.2813 19.3248
ltoes -10.3276
268
root 0.313022 17.9791 -22.8814 0.767961 2.40813 -0.132406
lowerback 2.36172 0.210467 -2.26705
upperback -0.571112 0.247884 1.96791
thorax -1.92976 0.161947 3.28714
lowerneck -14.6815 2.63908 8.18482
upperneck 30.5207 3.76253 -6.97658
head 12.9076 1.72305 -3.55279
rclavicle 1.00635e-014 -2.42517e-014
rhumerus -26.1667 -24.6903 -14.9704
rradius 26.916
rwrist 2.00981
rhand -23.8167 -3.96328
rfingers 7.12502
rthumb 2.6544 -33.9265
lclavicle 1.00635e-014 -2.42517e-014
lhumerus -17.4211 22.9026 24.8414
lradius 27.8341
lwrist -8.4219
lhand -15.6957 4.55629
lfingers 7.12502
lthumb 10.4937 34.2744
rfemur -3.99093 3.43417 15.6711
rtibia 26.751
rfoot -13.8725 -20.388
rtoes -6.28145
lfemur -3.02862 -0.258038 -17.8947
ltibia 23.159
lfoot -11.2658 19.3198
ltoes -10.3847
269
root 0.306287 17.9784 -22.8845 0.746691 2.44092 -0.12596
lowerback 2.40997 0.217176 -2.22932
upperback -0.554225 0.257123 1.96274
thorax -1.93995 0.166029 3.26005
lowerneck -14.659 2.72252 8.47795
upperneck 30.63 3.86389 -7.1497
head 12.9698 1.78171 -3.66103
rclavicle -4.02539e-015 3.57812e-015
rhumerus -25.9177 -24.6588 -14.8696
rradius 27.0528
rwrist 1.96659
rhand -23.8806 -3.94692
rfingers 7.12502
rthumb 2.59264 -33.9109
lclavicle -4.02539e-015 3.57812e-015
lhumerus -17.2949 23.076 24.6068
lradius 27.8193
lwrist -8.50428
lhand -15.6981 4.56498
lfingers 7.12502
lthumb 10.4914 34.2832
rfemur -3.98809 3.39972 15.686
rtibia 26.7819
rfoot -13.8929 -20.3837
rtoes -6.26432
lfemur -3.02867 -0.270107 -17.8772
ltibia 23.1692
lfoot -11.2467 19.3077
ltoes -10.456
